<svg width="28" height="21" viewBox="0 0 28 21" fill="none" xmlns="http://www.w3.org/2000/svg">
<path d="M0.639998 20.4798C0.426665 20.4798 0.277332 20.4051 0.191998 20.2558C0.106665 20.1065 0.0639983 19.9465 0.0639983 19.7758C0.0853316 19.4131 0.170665 19.2105 0.319998 19.1678C0.469332 19.1251 0.650665 19.1038 0.863998 19.1038C1.54667 19.1038 2.016 18.9865 2.272 18.7518C2.54933 18.4958 2.72 18.1865 2.784 17.8238C2.848 17.4398 2.88 17.0451 2.88 16.6398L2.944 3.93579C2.944 2.93312 2.77333 2.29312 2.432 2.01579C2.09067 1.73846 1.54667 1.52512 0.799998 1.37579C0.479998 1.31179 0.266665 1.25846 0.159998 1.21579C0.0533317 1.15179 -1.66893e-06 0.959787 -1.66893e-06 0.639788C-1.66893e-06 0.277122 0.127998 0.0851218 0.383998 0.0637875C0.639998 0.0211213 0.938665 -0.000211716 1.28 -0.000211716C2.47467 -0.000211716 3.43467 0.0957883 4.16 0.287788C4.90667 0.479788 5.55733 0.821122 6.112 1.31179C6.688 1.80246 7.30667 2.49579 7.968 3.39179L16.736 14.9118H16.832L16.768 3.93579C16.768 3.53045 16.736 3.14645 16.672 2.78379C16.608 2.39979 16.4373 2.09045 16.16 1.85579C15.904 1.59979 15.4347 1.47179 14.752 1.47179C14.5387 1.47179 14.3573 1.45045 14.208 1.40779C14.0587 1.36512 13.9627 1.16245 13.92 0.799788C13.92 0.629122 13.9627 0.469122 14.048 0.319788C14.1547 0.170455 14.304 0.095789 14.496 0.095789C14.9653 0.117122 15.3387 0.138455 15.616 0.159788C15.9147 0.159788 16.2027 0.170455 16.48 0.191788C16.7787 0.191788 17.1413 0.191788 17.568 0.191788C17.9947 0.191788 18.3467 0.191788 18.624 0.191788C18.9013 0.170455 19.1787 0.159788 19.456 0.159788C19.7547 0.138455 20.128 0.117122 20.576 0.095789C20.7893 0.095789 20.9387 0.170455 21.024 0.319788C21.1093 0.469122 21.152 0.629122 21.152 0.799788C21.1307 1.16245 21.0453 1.36512 20.896 1.40779C20.768 1.45045 20.5867 1.47179 20.352 1.47179C19.6907 1.47179 19.2213 1.59979 18.944 1.85579C18.6667 2.09045 18.496 2.39979 18.432 2.78379C18.3893 3.14645 18.3573 3.53045 18.336 3.93579L18.272 20.0638C18.2507 20.2345 18.144 20.3411 17.952 20.3838C17.7813 20.4478 17.6213 20.4798 17.472 20.4798C17.0667 20.4798 16.7573 20.3411 16.544 20.0638L4.48 3.93579H4.384L4.448 16.6398C4.46933 17.0451 4.50133 17.4398 4.544 17.8238C4.608 18.1865 4.77867 18.4958 5.056 18.7518C5.33333 18.9865 5.80267 19.1038 6.464 19.1038C6.69867 19.1038 6.89067 19.1251 7.04 19.1678C7.18933 19.2105 7.27467 19.4131 7.296 19.7758C7.296 19.9465 7.24267 20.1065 7.136 20.2558C7.05067 20.4051 6.912 20.4798 6.72 20.4798C6.272 20.4585 5.888 20.4371 5.568 20.4158C5.26933 20.4158 4.97067 20.4051 4.672 20.3838C4.39467 20.3838 4.04267 20.3838 3.616 20.3838C3.18933 20.3838 2.83733 20.3838 2.56 20.3838C2.304 20.4051 2.03733 20.4158 1.76 20.4158C1.48267 20.4371 1.10933 20.4585 0.639998 20.4798Z" fill="#515151"/>
<path d="M25.7697 20.7678C25.1937 20.7678 24.7137 20.5865 24.3297 20.2238C23.9457 19.8398 23.7537 19.3491 23.7537 18.7518C23.7537 18.1971 23.9457 17.7278 24.3297 17.3438C24.7137 16.9598 25.2044 16.7678 25.8017 16.7678C26.3777 16.7678 26.8577 16.9598 27.2417 17.3438C27.6471 17.7278 27.8497 18.1971 27.8497 18.7518C27.8497 19.3491 27.6471 19.8398 27.2417 20.2238C26.8577 20.5865 26.3671 20.7678 25.7697 20.7678Z" fill="#2C9159"/>
</svg>
