<svg width="287" height="84" viewBox="0 0 287 84" fill="none" xmlns="http://www.w3.org/2000/svg">
<path d="M2.56002 81.9201C1.70669 81.9201 1.10936 81.6215 0.768023 81.0241C0.42669 80.4268 0.256024 79.7868 0.256024 79.1041C0.341357 77.6535 0.68269 76.8428 1.28002 76.6721C1.87736 76.5015 2.60269 76.4161 3.45602 76.4161C6.18669 76.4161 8.06402 75.9468 9.08802 75.0081C10.1974 73.9841 10.88 72.7468 11.136 71.2961C11.392 69.7601 11.52 68.1815 11.52 66.5601L11.776 15.7441C11.776 11.7335 11.0934 9.17346 9.72802 8.06413C8.36269 6.9548 6.18669 6.10146 3.20002 5.50413C1.92002 5.24813 1.06669 5.0348 0.640024 4.86413C0.213357 4.60813 2.38419e-05 3.84013 2.38419e-05 2.56013C2.38419e-05 1.10946 0.512024 0.341464 1.53602 0.256126C2.56002 0.0854619 3.75469 0.0001297 5.12002 0.0001297C9.89869 0.0001297 13.7387 0.38413 16.64 1.15213C19.6267 1.92013 22.2294 3.28546 24.448 5.24813C26.752 7.2108 29.2267 9.98413 31.872 13.5681L66.944 59.6481H67.328L67.072 15.7441C67.072 14.1228 66.944 12.5868 66.688 11.1361C66.432 9.60013 65.7494 8.3628 64.64 7.42413C63.616 6.40013 61.7387 5.88813 59.008 5.88813C58.1547 5.88813 57.4294 5.8028 56.832 5.63213C56.2347 5.46146 55.8507 4.65079 55.68 3.20013C55.68 2.51746 55.8507 1.87746 56.192 1.28013C56.6187 0.682798 57.216 0.384132 57.984 0.384132C59.8614 0.469465 61.3547 0.554797 62.464 0.640129C63.6587 0.640129 64.8107 0.682795 65.92 0.768127C67.1147 0.768127 68.5654 0.768127 70.272 0.768127C71.9787 0.768127 73.3867 0.768127 74.496 0.768127C75.6054 0.682795 76.7147 0.640129 77.824 0.640129C79.0187 0.554797 80.512 0.469465 82.304 0.384132C83.1574 0.384132 83.7547 0.682798 84.096 1.28013C84.4374 1.87746 84.608 2.51746 84.608 3.20013C84.5227 4.65079 84.1814 5.46146 83.584 5.63213C83.072 5.8028 82.3467 5.88813 81.408 5.88813C78.7627 5.88813 76.8854 6.40013 75.776 7.42413C74.6667 8.3628 73.984 9.60013 73.728 11.1361C73.5574 12.5868 73.4294 14.1228 73.344 15.7441L73.088 80.2561C73.0027 80.9388 72.576 81.3655 71.808 81.5361C71.1254 81.7921 70.4854 81.9201 69.888 81.9201C68.2667 81.9201 67.0294 81.3655 66.176 80.2561L17.92 15.7441H17.536L17.792 66.5601C17.8774 68.1815 18.0054 69.7601 18.176 71.2961C18.432 72.7468 19.1147 73.9841 20.224 75.0081C21.3334 75.9468 23.2107 76.4161 25.856 76.4161C26.7947 76.4161 27.5627 76.5015 28.16 76.6721C28.7574 76.8428 29.0987 77.6535 29.184 79.1041C29.184 79.7868 28.9707 80.4268 28.544 81.0241C28.2027 81.6215 27.648 81.9201 26.88 81.9201C25.088 81.8348 23.552 81.7495 22.272 81.6641C21.0774 81.6641 19.8827 81.6215 18.688 81.5361C17.5787 81.5361 16.1707 81.5361 14.464 81.5361C12.7574 81.5361 11.3494 81.5361 10.24 81.5361C9.21602 81.6215 8.14936 81.6641 7.04002 81.6641C5.93069 81.7495 4.43736 81.8348 2.56002 81.9201ZM116.821 83.0721C110.848 83.0721 105.6 81.6641 101.077 78.8481C96.6397 76.0321 93.1837 72.3628 90.709 67.8401C88.2344 63.3175 86.997 58.4961 86.997 53.3761C86.997 48.3415 87.893 43.8615 89.685 39.9361C91.477 36.0108 93.8237 32.7255 96.725 30.0801C99.7117 27.4348 102.954 25.4295 106.453 24.0641C109.952 22.6988 113.408 22.0161 116.821 22.0161C122.794 22.0161 128 23.4241 132.437 26.2401C136.96 29.0561 140.458 32.7255 142.933 37.2481C145.408 41.7708 146.645 46.5921 146.645 51.7121C146.645 56.7468 145.706 61.2268 143.829 65.1521C142.037 69.0775 139.648 72.3628 136.661 75.0081C133.76 77.6535 130.56 79.6588 127.061 81.0241C123.562 82.3895 120.149 83.0721 116.821 83.0721ZM116.821 78.3361C121.002 78.3361 124.288 77.0988 126.677 74.6241C129.152 72.1495 130.901 68.9068 131.925 64.8961C133.034 60.8001 133.589 56.4055 133.589 51.7121C133.589 47.1895 133.034 43.0508 131.925 39.2961C130.816 35.5415 129.024 32.5121 126.549 30.2081C124.074 27.9041 120.832 26.7521 116.821 26.7521C112.64 26.7521 109.312 27.9895 106.837 30.4641C104.362 32.8535 102.613 36.0535 101.589 40.0641C100.565 43.9895 100.053 48.3415 100.053 53.1201C100.053 57.5575 100.565 61.6961 101.589 65.5361C102.698 69.3761 104.49 72.4908 106.965 74.8801C109.44 77.1841 112.725 78.3361 116.821 78.3361ZM178.897 83.7121C176.337 83.7121 173.905 83.0721 171.601 81.7921C169.297 80.5121 167.377 78.5495 165.841 75.9041C164.39 73.2588 163.665 69.9308 163.665 65.9201V28.2881L156.241 28.5441C155.644 28.5441 155.174 28.3308 154.833 27.9041C154.577 27.3921 154.449 26.8375 154.449 26.2401C154.449 24.5335 155.046 23.5521 156.241 23.2961C159.398 22.6988 161.788 21.7175 163.409 20.3521C165.03 18.9015 166.268 17.1948 167.121 15.2321C168.06 13.2695 168.913 11.1361 169.681 8.83213C169.937 8.14946 170.321 7.7228 170.833 7.55213C171.345 7.29613 171.9 7.16813 172.497 7.16813C173.009 7.16813 173.564 7.29613 174.161 7.55213C174.844 7.80813 175.185 8.27746 175.185 8.96013L174.289 23.5521L189.265 22.6561C190.033 22.5708 190.545 22.7841 190.801 23.2961C191.057 23.8081 191.185 24.4055 191.185 25.0881C191.185 25.9415 191.014 26.7948 190.673 27.6481C190.417 28.5015 190.076 28.9281 189.649 28.9281L175.313 28.5441V67.4561C175.313 69.9308 175.825 72.1921 176.849 74.2401C177.958 76.2881 179.921 77.3121 182.737 77.3121C183.676 77.3121 184.742 77.2268 185.937 77.0561C187.132 76.8855 188.412 76.5015 189.777 75.9041C190.118 75.7335 190.46 75.6055 190.801 75.5201C191.142 75.3495 191.484 75.2641 191.825 75.2641C192.508 75.2641 193.02 75.5628 193.361 76.1601C193.702 76.6721 194.001 77.2268 194.257 77.8241C194.513 78.5921 194.3 79.1895 193.617 79.6161C190.972 81.3228 188.54 82.4321 186.321 82.9441C184.102 83.4561 181.628 83.7121 178.897 83.7121ZM234.949 83.0721C228.378 83.0721 222.832 81.6641 218.309 78.8481C213.872 76.0321 210.544 72.2775 208.325 67.5841C206.106 62.8908 204.997 57.7708 204.997 52.2241C204.997 48.4695 205.637 44.8428 206.917 41.3441C208.282 37.7601 210.202 34.5175 212.677 31.6161C215.152 28.6295 218.138 26.2828 221.637 24.5761C225.136 22.8695 229.104 22.0161 233.541 22.0161C241.392 22.0161 247.28 24.0641 251.205 28.1601C255.216 32.1708 257.52 37.2908 258.117 43.5201C258.117 46.5068 257.264 48.4695 255.557 49.4081C253.936 50.3468 251.802 50.8161 249.157 50.8161H218.053C218.053 55.7655 218.736 60.2028 220.101 64.1281C221.466 67.9681 223.6 71.0401 226.501 73.3441C229.488 75.5628 233.413 76.6721 238.277 76.6721C241.861 76.6721 244.933 75.9041 247.493 74.3681C250.053 72.8321 252.528 70.1441 254.917 66.3041C255.6 65.4508 256.538 65.4081 257.733 66.1761C258.416 66.5175 258.842 67.0721 259.013 67.8401C259.184 68.5228 259.098 69.1201 258.757 69.6321C256.112 73.8135 252.784 77.0988 248.773 79.4881C244.762 81.8775 240.154 83.0721 234.949 83.0721ZM218.053 45.9521H238.917C240.965 45.9521 242.586 45.5681 243.781 44.8001C245.061 43.9468 245.744 42.5388 245.829 40.5761C245.829 36.9068 244.805 33.6641 242.757 30.8481C240.794 27.9468 237.722 26.4961 233.541 26.4961C229.274 26.4961 225.69 28.2028 222.789 31.6161C219.973 35.0295 218.394 39.8081 218.053 45.9521ZM278.079 83.0721C275.775 83.0721 273.855 82.3468 272.319 80.8961C270.783 79.3601 270.015 77.3975 270.015 75.0081C270.015 72.7895 270.783 70.9121 272.319 69.3761C273.855 67.8401 275.818 67.0721 278.207 67.0721C280.511 67.0721 282.431 67.8401 283.967 69.3761C285.588 70.9121 286.399 72.7895 286.399 75.0081C286.399 77.3975 285.588 79.3601 283.967 80.8961C282.431 82.3468 280.468 83.0721 278.079 83.0721Z" fill="white"/>
</svg>
